<?xml version="1.0" standalone="no"?><svg xmlns="http://www.w3.org/2000/svg" viewBox="0 0 1440 320"><path fill="#EFD28D " fill-opacity="1" d="M0,160L24,181.3C48,203,96,245,144,224C192,203,240,117,288,106.7C336,96,384,160,432,170.7C480,181,528,139,576,133.3C624,128,672,160,720,160C768,160,816,128,864,101.3C912,75,960,53,1008,58.7C1056,64,1104,96,1152,122.7C1200,149,1248,171,1296,176C1344,181,1392,171,1416,165.3L1440,160L1440,0L1416,0C1392,0,1344,0,1296,0C1248,0,1200,0,1152,0C1104,0,1056,0,1008,0C960,0,912,0,864,0C816,0,768,0,720,0C672,0,624,0,576,0C528,0,480,0,432,0C384,0,336,0,288,0C240,0,192,0,144,0C96,0,48,0,24,0L0,0Z"></path></svg>